<svg data-v-423bf9ae="" xmlns="http://www.w3.org/2000/svg" viewBox="0 0 587.2166286205686 60" class="font"><!----><!----><!----><g data-v-423bf9ae="" id="a68fb48d-1c22-47c9-804b-bbbe4fd808ea" fill="white" transform="matrix(5.439709543503888,0,0,5.439709543503888,-7.615586947663019,-7.6155938272591115)"><path d="M11.93 1.40L11.93 1.40Q12.11 1.40 12.22 1.52L12.22 1.52L12.22 1.52Q12.33 1.64 12.33 1.82L12.33 1.82L12.33 11.91L12.33 11.91Q12.33 12.10 12.22 12.21L12.22 12.21L12.22 12.21Q12.11 12.33 11.93 12.33L11.93 12.33L11.93 12.33Q11.75 12.33 11.62 12.21L11.62 12.21L11.62 12.21Q11.49 12.10 11.49 11.91L11.49 11.91L11.49 3.33L7.24 12.00L7.24 12.00Q7.14 12.19 6.87 12.19L6.87 12.19L6.87 12.19Q6.62 12.19 6.48 11.93L6.48 11.93L2.24 3.46L2.24 11.91L2.24 11.91Q2.24 12.10 2.12 12.21L2.12 12.21L2.12 12.21Q2.00 12.33 1.82 12.33L1.82 12.33L1.82 12.33Q1.64 12.33 1.52 12.21L1.52 12.21L1.52 12.21Q1.40 12.10 1.40 11.91L1.40 11.91L1.40 1.82L1.40 1.82Q1.40 1.64 1.52 1.52L1.52 1.52L1.52 1.52Q1.64 1.40 1.82 1.40L1.82 1.40L1.82 1.40Q2.10 1.40 2.20 1.61L2.20 1.61L6.90 10.91L11.55 1.61L11.55 1.61Q11.68 1.40 11.93 1.40L11.93 1.40ZM18.49 4.59L18.49 4.59Q19.59 4.59 20.48 5.10L20.48 5.10L20.48 5.10Q21.38 5.61 21.89 6.51L21.89 6.51L21.89 6.51Q22.40 7.41 22.40 8.51L22.40 8.51L22.40 11.91L22.40 11.91Q22.40 12.10 22.29 12.21L22.29 12.21L22.29 12.21Q22.18 12.33 21.98 12.33L21.98 12.33L21.98 12.33Q21.80 12.33 21.68 12.21L21.68 12.21L21.68 12.21Q21.56 12.10 21.56 11.91L21.56 11.91L21.56 10.82L21.56 10.82Q21.10 11.56 20.29 11.99L20.29 11.99L20.29 11.99Q19.49 12.42 18.49 12.42L18.49 12.42L18.49 12.42Q17.39 12.42 16.49 11.91L16.49 11.91L16.49 11.91Q15.60 11.40 15.09 10.50L15.09 10.50L15.09 10.50Q14.57 9.60 14.57 8.51L14.57 8.51L14.57 8.51Q14.57 7.41 15.09 6.51L15.09 6.51L15.09 6.51Q15.60 5.61 16.49 5.10L16.49 5.10L16.49 5.10Q17.39 4.59 18.49 4.59L18.49 4.59ZM18.49 11.63L18.49 11.63Q19.36 11.63 20.06 11.23L20.06 11.23L20.06 11.23Q20.76 10.82 21.16 10.11L21.16 10.11L21.16 10.11Q21.56 9.39 21.56 8.51L21.56 8.51L21.56 8.51Q21.56 7.63 21.16 6.92L21.16 6.92L21.16 6.92Q20.76 6.20 20.06 5.79L20.06 5.79L20.06 5.79Q19.36 5.38 18.49 5.38L18.49 5.38L18.49 5.38Q17.63 5.38 16.93 5.79L16.93 5.79L16.93 5.79Q16.23 6.20 15.82 6.92L15.82 6.92L15.82 6.92Q15.41 7.63 15.41 8.51L15.41 8.51L15.41 8.51Q15.41 9.39 15.82 10.11L15.82 10.11L15.82 10.11Q16.23 10.82 16.93 11.23L16.93 11.23L16.93 11.23Q17.63 11.63 18.49 11.63L18.49 11.63ZM27.68 4.61L27.68 4.61Q28.57 4.61 29.32 4.96L29.32 4.96L29.32 4.96Q30.06 5.31 30.60 5.99L30.60 5.99L30.60 5.99Q30.70 6.13 30.70 6.23L30.70 6.23L30.70 6.23Q30.70 6.43 30.51 6.54L30.51 6.54L30.51 6.54Q30.41 6.62 30.28 6.62L30.28 6.62L30.28 6.62Q30.09 6.62 29.96 6.45L29.96 6.45L29.96 6.45Q29.06 5.39 27.68 5.39L27.68 5.39L27.68 5.39Q26.87 5.39 26.24 5.79L26.24 5.79L26.24 5.79Q25.61 6.19 25.26 6.90L25.26 6.90L25.26 6.90Q24.92 7.62 24.92 8.51L24.92 8.51L24.92 8.51Q24.92 9.39 25.30 10.11L25.30 10.11L25.30 10.11Q25.68 10.82 26.35 11.23L26.35 11.23L26.35 11.23Q27.02 11.63 27.89 11.63L27.89 11.63L27.89 11.63Q29.12 11.63 29.86 10.95L29.86 10.95L29.86 10.95Q29.99 10.82 30.16 10.82L30.16 10.82L30.16 10.82Q30.31 10.82 30.41 10.92L30.41 10.92L30.41 10.92Q30.55 11.05 30.55 11.23L30.55 11.23L30.55 11.23Q30.55 11.38 30.44 11.48L30.44 11.48L30.44 11.48Q29.95 11.93 29.29 12.17L29.29 12.17L29.29 12.17Q28.63 12.42 27.89 12.42L27.89 12.42L27.89 12.42Q26.81 12.42 25.94 11.91L25.94 11.91L25.94 11.91Q25.07 11.40 24.58 10.50L24.58 10.50L24.58 10.50Q24.08 9.60 24.08 8.51L24.08 8.51L24.08 8.51Q24.08 7.41 24.54 6.52L24.54 6.52L24.54 6.52Q25.00 5.63 25.83 5.12L25.83 5.12L25.83 5.12Q26.66 4.61 27.68 4.61L27.68 4.61ZM33.08 5.10L33.08 5.10Q33.08 4.90 33.20 4.79L33.20 4.79L33.20 4.79Q33.32 4.68 33.50 4.68L33.50 4.68L33.50 4.68Q33.70 4.68 33.81 4.79L33.81 4.79L33.81 4.79Q33.92 4.90 33.92 5.10L33.92 5.10L33.92 11.91L33.92 11.91Q33.92 12.10 33.81 12.21L33.81 12.21L33.81 12.21Q33.70 12.33 33.50 12.33L33.50 12.33L33.50 12.33Q33.32 12.33 33.20 12.21L33.20 12.21L33.20 12.21Q33.08 12.10 33.08 11.91L33.08 11.91L33.08 5.10ZM33.50 1.76L33.50 1.76Q33.77 1.76 33.96 1.93L33.96 1.93L33.96 1.93Q34.15 2.10 34.15 2.41L34.15 2.41L34.15 2.41Q34.15 2.69 33.96 2.88L33.96 2.88L33.96 2.88Q33.77 3.07 33.49 3.07L33.49 3.07L33.49 3.07Q33.21 3.07 33.03 2.88L33.03 2.88L33.03 2.88Q32.84 2.69 32.84 2.41L32.84 2.41L32.84 2.41Q32.84 2.10 33.04 1.93L33.04 1.93L33.04 1.93Q33.24 1.76 33.50 1.76L33.50 1.76ZM39.97 4.59L39.97 4.59Q41.03 4.59 41.03 5.05L41.03 5.05L41.03 5.05Q41.03 5.12 41.02 5.17L41.02 5.17L41.02 5.17Q40.98 5.32 40.89 5.38L40.89 5.38L40.89 5.38Q40.80 5.45 40.64 5.45L40.64 5.45L40.64 5.45Q40.52 5.45 40.31 5.42L40.31 5.42L40.31 5.42Q40.11 5.39 39.97 5.39L39.97 5.39L39.97 5.39Q39.27 5.39 38.72 5.68L38.72 5.68L38.72 5.68Q38.18 5.98 37.87 6.50L37.87 6.50L37.87 6.50Q37.56 7.01 37.56 7.66L37.56 7.66L37.56 11.91L37.56 11.91Q37.56 12.10 37.45 12.21L37.45 12.21L37.45 12.21Q37.34 12.33 37.14 12.33L37.14 12.33L37.14 12.33Q36.96 12.33 36.84 12.21L36.84 12.21L36.84 12.21Q36.72 12.10 36.72 11.91L36.72 11.91L36.72 5.10L36.72 5.10Q36.72 4.90 36.84 4.79L36.84 4.79L36.84 4.79Q36.96 4.68 37.14 4.68L37.14 4.68L37.14 4.68Q37.34 4.68 37.45 4.79L37.45 4.79L37.45 4.79Q37.56 4.90 37.56 5.10L37.56 5.10L37.56 5.96L37.56 5.96Q37.97 5.32 38.60 4.96L38.60 4.96L38.60 4.96Q39.23 4.59 39.97 4.59L39.97 4.59ZM50.95 1.40L50.95 1.40Q51.72 1.40 52.37 1.74L52.37 1.74L52.37 1.74Q53.03 2.09 53.42 2.69L53.42 2.69L53.42 2.69Q53.80 3.29 53.80 4.05L53.80 4.05L53.80 4.05Q53.80 4.83 53.38 5.45L53.38 5.45L53.38 5.45Q52.96 6.08 52.26 6.38L52.26 6.38L52.26 6.38Q53.24 6.65 53.81 7.37L53.81 7.37L53.81 7.37Q54.38 8.09 54.38 9.16L54.38 9.16L54.38 9.16Q54.38 10.08 53.96 10.80L53.96 10.80L53.96 10.80Q53.55 11.52 52.81 11.93L52.81 11.93L52.81 11.93Q52.08 12.33 51.16 12.33L51.16 12.33L47.64 12.33L47.64 12.33Q47.39 12.33 47.24 12.23L47.24 12.23L47.24 12.23Q47.10 12.12 47.10 11.91L47.10 11.91L47.10 1.82L47.10 1.82Q47.10 1.62 47.21 1.51L47.21 1.51L47.21 1.51Q47.33 1.40 47.52 1.40L47.52 1.40L50.95 1.40ZM50.95 6.02L50.95 6.02Q51.84 6.02 52.40 5.47L52.40 5.47L52.40 5.47Q52.96 4.93 52.96 4.05L52.96 4.05L52.96 4.05Q52.96 3.19 52.41 2.72L52.41 2.72L52.41 2.72Q51.86 2.24 50.95 2.24L50.95 2.24L47.94 2.24L47.94 6.02L50.95 6.02ZM51.16 11.49L51.16 11.49Q51.84 11.49 52.38 11.19L52.38 11.19L52.38 11.19Q52.92 10.89 53.23 10.36L53.23 10.36L53.23 10.36Q53.54 9.83 53.54 9.16L53.54 9.16L53.54 9.16Q53.54 8.50 53.23 7.97L53.23 7.97L53.23 7.97Q52.92 7.45 52.38 7.15L52.38 7.15L52.38 7.15Q51.84 6.86 51.16 6.86L51.16 6.86L47.94 6.86L47.94 11.49L51.16 11.49ZM59.65 4.59L59.65 4.59Q60.72 4.59 60.72 5.05L60.72 5.05L60.72 5.05Q60.72 5.12 60.70 5.17L60.70 5.17L60.70 5.17Q60.66 5.32 60.57 5.38L60.57 5.38L60.57 5.38Q60.48 5.45 60.33 5.45L60.33 5.45L60.33 5.45Q60.20 5.45 60.00 5.42L60.00 5.42L60.00 5.42Q59.79 5.39 59.65 5.39L59.65 5.39L59.65 5.39Q58.95 5.39 58.41 5.68L58.41 5.68L58.41 5.68Q57.86 5.98 57.55 6.50L57.55 6.50L57.55 6.50Q57.25 7.01 57.25 7.66L57.25 7.66L57.25 11.91L57.25 11.91Q57.25 12.10 57.13 12.21L57.13 12.21L57.13 12.21Q57.02 12.33 56.83 12.33L56.83 12.33L56.83 12.33Q56.64 12.33 56.52 12.21L56.52 12.21L56.52 12.21Q56.41 12.10 56.41 11.91L56.41 11.91L56.41 5.10L56.41 5.10Q56.41 4.90 56.52 4.79L56.52 4.79L56.52 4.79Q56.64 4.68 56.83 4.68L56.83 4.68L56.83 4.68Q57.02 4.68 57.13 4.79L57.13 4.79L57.13 4.79Q57.25 4.90 57.25 5.10L57.25 5.10L57.25 5.96L57.25 5.96Q57.65 5.32 58.28 4.96L58.28 4.96L58.28 4.96Q58.91 4.59 59.65 4.59L59.65 4.59ZM69.02 4.68L69.02 4.68Q69.22 4.68 69.33 4.79L69.33 4.79L69.33 4.79Q69.44 4.90 69.44 5.10L69.44 5.10L69.44 11.91L69.44 11.91Q69.44 12.10 69.33 12.21L69.33 12.21L69.33 12.21Q69.22 12.33 69.02 12.33L69.02 12.33L69.02 12.33Q68.84 12.33 68.72 12.21L68.72 12.21L68.72 12.21Q68.60 12.10 68.60 11.91L68.60 11.91L68.60 11.19L68.60 11.19Q68.12 11.77 67.44 12.10L67.44 12.10L67.44 12.10Q66.75 12.43 65.94 12.43L65.94 12.43L65.94 12.43Q64.92 12.43 64.11 12.01L64.11 12.01L64.11 12.01Q63.31 11.59 62.85 10.79L62.85 10.79L62.85 10.79Q62.40 9.98 62.40 8.86L62.40 8.86L62.40 5.10L62.40 5.10Q62.40 4.91 62.52 4.79L62.52 4.79L62.52 4.79Q62.64 4.68 62.82 4.68L62.82 4.68L62.82 4.68Q63 4.68 63.12 4.79L63.12 4.79L63.12 4.79Q63.24 4.91 63.24 5.10L63.24 5.10L63.24 8.86L63.24 8.86Q63.24 10.19 63.99 10.89L63.99 10.89L63.99 10.89Q64.74 11.59 65.94 11.59L65.94 11.59L65.94 11.59Q66.68 11.59 67.29 11.30L67.29 11.30L67.29 11.30Q67.90 11.02 68.25 10.51L68.25 10.51L68.25 10.51Q68.60 10.00 68.60 9.38L68.60 9.38L68.60 5.10L68.60 5.10Q68.60 4.90 68.72 4.79L68.72 4.79L68.72 4.79Q68.84 4.68 69.02 4.68L69.02 4.68ZM74.58 4.59L74.58 4.59Q76.34 4.59 77.25 5.85L77.25 5.85L77.25 5.85Q77.34 5.95 77.34 6.09L77.34 6.09L77.34 6.09Q77.34 6.29 77.11 6.41L77.11 6.41L77.11 6.41Q76.97 6.47 76.90 6.47L76.90 6.47L76.90 6.47Q76.69 6.47 76.55 6.29L76.55 6.29L76.55 6.29Q75.84 5.38 74.55 5.38L74.55 5.38L74.55 5.38Q73.70 5.38 73.19 5.75L73.19 5.75L73.19 5.75Q72.69 6.12 72.69 6.66L72.69 6.66L72.69 6.66Q72.69 7.22 73.17 7.56L73.17 7.56L73.17 7.56Q73.65 7.90 74.79 8.06L74.79 8.06L74.79 8.06Q76.27 8.27 76.92 8.86L76.92 8.86L76.92 8.86Q77.57 9.44 77.57 10.26L77.57 10.26L77.57 10.26Q77.57 10.91 77.16 11.40L77.16 11.40L77.16 11.40Q76.75 11.89 76.06 12.15L76.06 12.15L76.06 12.15Q75.38 12.42 74.56 12.42L74.56 12.42L74.56 12.42Q73.75 12.42 72.98 12.13L72.98 12.13L72.98 12.13Q72.21 11.84 71.71 11.26L71.71 11.26L71.71 11.26Q71.61 11.14 71.61 11.00L71.61 11.00L71.61 11.00Q71.61 10.81 71.79 10.68L71.79 10.68L71.79 10.68Q71.88 10.61 72.03 10.61L72.03 10.61L72.03 10.61Q72.23 10.61 72.35 10.77L72.35 10.77L72.35 10.77Q73.05 11.62 74.61 11.62L74.61 11.62L74.61 11.62Q75.71 11.62 76.24 11.23L76.24 11.23L76.24 11.23Q76.76 10.84 76.76 10.22L76.76 10.22L76.76 10.22Q76.76 9.11 74.62 8.81L74.62 8.81L74.62 8.81Q73.26 8.61 72.57 8.06L72.57 8.06L72.57 8.06Q71.88 7.52 71.88 6.75L71.88 6.75L71.88 6.75Q71.88 5.73 72.63 5.16L72.63 5.16L72.63 5.16Q73.37 4.59 74.58 4.59L74.58 4.59ZM82.92 11.48L82.92 11.48Q83.12 11.48 83.24 11.60L83.24 11.60L83.24 11.60Q83.36 11.72 83.36 11.91L83.36 11.91L83.36 11.91Q83.36 12.10 83.24 12.21L83.24 12.21L83.24 12.21Q83.12 12.33 82.92 12.33L82.92 12.33L82.60 12.33L82.60 12.33Q81.83 12.33 81.23 11.98L81.23 11.98L81.23 11.98Q80.63 11.63 80.29 11.03L80.29 11.03L80.29 11.03Q79.95 10.42 79.95 9.65L79.95 9.65L79.95 5.71L78.86 5.71L78.86 5.71Q78.69 5.71 78.59 5.61L78.59 5.61L78.59 5.61Q78.48 5.50 78.48 5.33L78.48 5.33L78.48 5.33Q78.48 5.17 78.59 5.06L78.59 5.06L78.59 5.06Q78.69 4.96 78.86 4.96L78.86 4.96L79.95 4.96L79.95 2.67L79.95 2.67Q79.95 2.48 80.07 2.36L80.07 2.36L80.07 2.36Q80.19 2.24 80.37 2.24L80.37 2.24L80.37 2.24Q80.57 2.24 80.69 2.36L80.69 2.36L80.69 2.36Q80.81 2.48 80.81 2.67L80.81 2.67L80.81 4.96L82.66 4.96L82.66 4.96Q82.82 4.96 82.93 5.06L82.93 5.06L82.93 5.06Q83.03 5.17 83.03 5.33L83.03 5.33L83.03 5.33Q83.03 5.50 82.93 5.61L82.93 5.61L82.93 5.61Q82.82 5.71 82.66 5.71L82.66 5.71L80.81 5.71L80.81 9.65L80.81 9.65Q80.81 10.46 81.31 10.97L81.31 10.97L81.31 10.97Q81.82 11.48 82.61 11.48L82.61 11.48L82.92 11.48ZM88.61 4.59L88.61 4.59Q89.70 4.59 90.59 5.10L90.59 5.10L90.59 5.10Q91.49 5.61 92.00 6.51L92.00 6.51L92.00 6.51Q92.51 7.41 92.51 8.51L92.51 8.51L92.51 8.51Q92.51 9.60 92.00 10.50L92.00 10.50L92.00 10.50Q91.49 11.40 90.59 11.91L90.59 11.91L90.59 11.91Q89.70 12.42 88.61 12.42L88.61 12.42L88.61 12.42Q87.50 12.42 86.60 11.91L86.60 11.91L86.60 11.91Q85.71 11.40 85.20 10.50L85.20 10.50L85.20 10.50Q84.69 9.60 84.69 8.51L84.69 8.51L84.69 8.51Q84.69 7.41 85.20 6.51L85.20 6.51L85.20 6.51Q85.71 5.61 86.60 5.10L86.60 5.10L86.60 5.10Q87.50 4.59 88.61 4.59L88.61 4.59ZM88.61 5.38L88.61 5.38Q87.74 5.38 87.04 5.79L87.04 5.79L87.04 5.79Q86.34 6.20 85.93 6.92L85.93 6.92L85.93 6.92Q85.53 7.63 85.53 8.51L85.53 8.51L85.53 8.51Q85.53 9.39 85.93 10.11L85.93 10.11L85.93 10.11Q86.34 10.82 87.04 11.23L87.04 11.23L87.04 11.23Q87.74 11.63 88.61 11.63L88.61 11.63L88.61 11.63Q89.47 11.63 90.17 11.23L90.17 11.23L90.17 11.23Q90.87 10.82 91.27 10.11L91.27 10.11L91.27 10.11Q91.67 9.39 91.67 8.51L91.67 8.51L91.67 8.51Q91.67 7.63 91.27 6.92L91.27 6.92L91.27 6.92Q90.87 6.20 90.17 5.79L90.17 5.79L90.17 5.79Q89.47 5.38 88.61 5.38L88.61 5.38ZM94.33 1.82L94.33 1.82Q94.33 1.62 94.45 1.51L94.45 1.51L94.45 1.51Q94.57 1.40 94.75 1.40L94.75 1.40L94.75 1.40Q94.95 1.40 95.06 1.51L95.06 1.51L95.06 1.51Q95.17 1.62 95.17 1.82L95.17 1.82L95.17 10.02L95.17 10.02Q95.17 10.67 95.45 11.08L95.45 11.08L95.45 11.08Q95.72 11.49 96.15 11.49L96.15 11.49L96.50 11.49L96.50 11.49Q96.66 11.49 96.75 11.61L96.75 11.61L96.75 11.61Q96.85 11.72 96.85 11.91L96.85 11.91L96.85 11.91Q96.85 12.10 96.74 12.21L96.74 12.21L96.74 12.21Q96.63 12.33 96.43 12.33L96.43 12.33L96.15 12.33L96.15 12.33Q95.35 12.33 94.84 11.69L94.84 11.69L94.84 11.69Q94.33 11.05 94.33 10.02L94.33 10.02L94.33 1.82ZM98.67 5.10L98.67 5.10Q98.67 4.90 98.79 4.79L98.79 4.79L98.79 4.79Q98.91 4.68 99.09 4.68L99.09 4.68L99.09 4.68Q99.29 4.68 99.40 4.79L99.40 4.79L99.40 4.79Q99.51 4.90 99.51 5.10L99.51 5.10L99.51 11.91L99.51 11.91Q99.51 12.10 99.40 12.21L99.40 12.21L99.40 12.21Q99.29 12.33 99.09 12.33L99.09 12.33L99.09 12.33Q98.91 12.33 98.79 12.21L98.79 12.21L98.79 12.21Q98.67 12.10 98.67 11.91L98.67 11.91L98.67 5.10ZM99.09 1.76L99.09 1.76Q99.36 1.76 99.55 1.93L99.55 1.93L99.55 1.93Q99.74 2.10 99.74 2.41L99.74 2.41L99.74 2.41Q99.74 2.69 99.55 2.88L99.55 2.88L99.55 2.88Q99.36 3.07 99.08 3.07L99.08 3.07L99.08 3.07Q98.80 3.07 98.62 2.88L98.62 2.88L98.62 2.88Q98.43 2.69 98.43 2.41L98.43 2.41L98.43 2.41Q98.43 2.10 98.63 1.93L98.63 1.93L98.63 1.93Q98.83 1.76 99.09 1.76L99.09 1.76ZM105.81 4.58L105.81 4.58Q106.83 4.58 107.64 5.00L107.64 5.00L107.64 5.00Q108.44 5.42 108.90 6.22L108.90 6.22L108.90 6.22Q109.35 7.03 109.35 8.15L109.35 8.15L109.35 11.91L109.35 11.91Q109.35 12.10 109.24 12.21L109.24 12.21L109.24 12.21Q109.12 12.33 108.93 12.33L108.93 12.33L108.93 12.33Q108.75 12.33 108.63 12.21L108.63 12.21L108.63 12.21Q108.51 12.10 108.51 11.91L108.51 11.91L108.51 8.15L108.51 8.15Q108.51 6.82 107.77 6.12L107.77 6.12L107.77 6.12Q107.02 5.42 105.81 5.42L105.81 5.42L105.81 5.42Q105.07 5.42 104.46 5.70L104.46 5.70L104.46 5.70Q103.85 5.99 103.50 6.50L103.50 6.50L103.50 6.50Q103.15 7.01 103.15 7.63L103.15 7.63L103.15 11.91L103.15 11.91Q103.15 12.10 103.04 12.21L103.04 12.21L103.04 12.21Q102.93 12.33 102.73 12.33L102.73 12.33L102.73 12.33Q102.55 12.33 102.43 12.21L102.43 12.21L102.43 12.21Q102.31 12.10 102.31 11.91L102.31 11.91L102.31 5.10L102.31 5.10Q102.31 4.90 102.43 4.79L102.43 4.79L102.43 4.79Q102.55 4.68 102.73 4.68L102.73 4.68L102.73 4.68Q102.93 4.68 103.04 4.79L103.04 4.79L103.04 4.79Q103.15 4.90 103.15 5.10L103.15 5.10L103.15 5.82L103.15 5.82Q103.63 5.24 104.31 4.91L104.31 4.91L104.31 4.91Q105 4.58 105.81 4.58L105.81 4.58Z"></path></g><!----><!----></svg>